<svg xmlns="http://www.w3.org/2000/svg" viewBox="0 0 317.52 82.95"><defs><style>.cls-1{fill:#f9a738;}.cls-2{fill:#2cccd3;}.cls-3{fill:#b1b3b3;}.cls-4{fill:#fff;}</style></defs><title>Criteria_White</title><g id="Layer_2" data-name="Layer 2"><g id="Layer_1-2" data-name="Layer 1"><path class="cls-1" d="M23.75,43.58a4,4,0,0,0-5.58,0l-17,17a3.95,3.95,0,0,0,5.58,5.58L21,52,35.19,66.18a3.95,3.95,0,0,0,5.58-5.58Z"/><path class="cls-2" d="M28,39.33a4,4,0,0,0,5.58,0L66.2,6.73a4,4,0,0,0,0-5.58h0a4,4,0,0,0-5.58,0L30.81,31,16.58,16.73A3.95,3.95,0,0,0,11,22.32Z"/><path class="cls-3" d="M37.89,43.61a4,4,0,0,0,0,5.58l32.6,32.6a4,4,0,0,0,5.58,0h0a4,4,0,0,0,0-5.58L46.26,46.4,60.49,32.17a3.95,3.95,0,0,0-5.58-5.58Z"/><circle class="cls-4" cx="157.31" cy="16.81" r="3.14"/><path class="cls-4" d="M157.31,25.61a2.77,2.77,0,0,0-2.76,2.77V62.77a2.77,2.77,0,1,0,5.53,0V28.38A2.78,2.78,0,0,0,157.31,25.61Z"/><path class="cls-4" d="M257.76,25.61h-.07c-6.91,0-10.44,3.7-11.73,7.39V28.38a2.78,2.78,0,0,0-2.77-2.77h0a2.77,2.77,0,0,0-2.76,2.77V62.77a2.77,2.77,0,0,0,2.76,2.77h0A2.78,2.78,0,0,0,246,62.77V45c0-13.72,7.81-14.1,11.8-14.1a1.78,1.78,0,0,0,.53-.08,2.61,2.61,0,0,0-.53-5.17Z"/><path class="cls-4" d="M146,25.61h-.13c-6.86.05-10.38,3.7-11.67,7.38V28.38a2.77,2.77,0,1,0-5.53,0V62.77a2.77,2.77,0,1,0,5.53,0V45c0-13.72,7.81-14.1,11.8-14.1a1.7,1.7,0,0,0,.57-.09,2.61,2.61,0,0,0-.57-5.16Z"/><path class="cls-4" d="M269,13.67a3.14,3.14,0,1,0,3.14,3.14A3.13,3.13,0,0,0,269,13.67Z"/><path class="cls-4" d="M269,25.61a2.77,2.77,0,0,0-2.76,2.77V62.77a2.76,2.76,0,1,0,5.52,0V28.38A2.77,2.77,0,0,0,269,25.61Z"/><path class="cls-4" d="M190.31,61.3a2.3,2.3,0,0,0-1.32-.42h-.52c-5.54.06-10.63-.85-10.63-12.48v-16H188a2.58,2.58,0,0,0,2.61-2.5,2.51,2.51,0,0,0-2.32-2.52,2.17,2.17,0,0,0-.36,0H177.82l0-5.63h0a2.76,2.76,0,0,0-1.81-2.6h0a2.82,2.82,0,0,0-1-.18,2.77,2.77,0,0,0-2.78,2.78h0l0,5.62h-3.78a2.45,2.45,0,0,0-1.58.57s0,0-.05.05a2.54,2.54,0,0,0-.87,2,2.58,2.58,0,0,0,2.61,2.46h3.69V48.67c0,12.36,4.77,16.87,14.64,16.87h2a2.39,2.39,0,0,0,2.41-2.37,2.27,2.27,0,0,0-.69-1.6A1.39,1.39,0,0,0,190.31,61.3Z"/><path class="cls-4" d="M314.75,25.61A2.77,2.77,0,0,0,312,28.38V31.8a19.95,19.95,0,1,0,0,27.51v3.46a2.77,2.77,0,1,0,5.53,0V28.38A2.78,2.78,0,0,0,314.75,25.61ZM297.58,60A14.42,14.42,0,1,1,312,45.56,14.42,14.42,0,0,1,297.58,60Z"/><path class="cls-4" d="M102.33,19.67a20,20,0,0,1,13.46,5.17,3,3,0,0,0,4-4.46,26.12,26.12,0,1,0,0,38.81,3,3,0,1,0-4-4.46,20.12,20.12,0,1,1-13.46-35.06Z"/><path class="cls-4" d="M213.32,25.63a19.57,19.57,0,0,0-19.95,19.9c0,11.88,8.63,20,20.62,20a24,24,0,0,0,14.4-4.47,2.35,2.35,0,0,0,.92-1.95,2.47,2.47,0,0,0-2.48-2.48,2.52,2.52,0,0,0-1.6.58,18.21,18.21,0,0,1-10.65,3.44c-8.72,0-14.64-6-15.14-13.14h30.08a4.35,4.35,0,0,0,1.94-.54,3,3,0,0,0,1.31-2.49v-.07C232.77,34.52,225.51,25.63,213.32,25.63Zm13.79,17.23H199.46A13.61,13.61,0,0,1,213.24,30.5c9,0,13.63,6.75,13.87,12.35Z"/></g></g></svg>